<?xml version="1.0" standalone="no"?><!DOCTYPE svg PUBLIC "-//W3C//DTD SVG 1.1//EN" "http://www.w3.org/Graphics/SVG/1.1/DTD/svg11.dtd"><svg width="100%" height="100%" viewBox="0 0 40 40" version="1.1" xmlns="http://www.w3.org/2000/svg" xmlns:xlink="http://www.w3.org/1999/xlink" xml:space="preserve" style="fill-rule:evenodd;clip-rule:evenodd;stroke-linejoin:round;stroke-miterlimit:1.41421;"><g><path d="M28.818,16.473c0.009,0.189 0.012,0.379 0.012,0.57c0,5.828 -4.436,12.548 -12.548,12.548c-2.49,0 -4.809,-0.729 -6.761,-1.981c0.345,0.041 0.695,0.062 1.052,0.062c2.065,0 3.968,-0.706 5.478,-1.889c-1.93,-0.035 -3.56,-1.311 -4.12,-3.062c0.268,0.052 0.544,0.078 0.83,0.078c0.402,0 0.791,-0.052 1.162,-0.154c-2.02,-0.406 -3.539,-2.187 -3.539,-4.324c0,-0.019 0,-0.037 0,-0.056c0.595,0.331 1.274,0.528 1.999,0.553c-1.183,-0.793 -1.964,-2.142 -1.964,-3.672c0,-0.808 0.219,-1.566 0.599,-2.217c2.175,2.669 5.425,4.424 9.09,4.608c-0.076,-0.322 -0.114,-0.66 -0.114,-1.005c0,-2.436 1.974,-4.41 4.41,-4.41c1.269,0 2.415,0.536 3.219,1.391c1.006,-0.196 1.949,-0.563 2.801,-1.069c-0.33,1.031 -1.029,1.895 -1.939,2.44c0.893,-0.107 1.742,-0.343 2.533,-0.695c-0.592,0.884 -1.339,1.662 -2.2,2.284M20.001,2.5c-9.666,0 -17.501,7.837 -17.501,17.501c0,9.666 7.835,17.499 17.501,17.499c9.666,0 17.499,-7.833 17.499,-17.499c0,-9.664 -7.833,-17.501 -17.499,-17.501" style="fill:#fff;fill-rule:nonzero;"/></g></svg>