<?xml version="1.0" standalone="no"?><!DOCTYPE svg PUBLIC "-//W3C//DTD SVG 1.1//EN" "http://www.w3.org/Graphics/SVG/1.1/DTD/svg11.dtd"><svg width="100%" height="100%" viewBox="0 0 55 75" version="1.1" xmlns="http://www.w3.org/2000/svg" xmlns:xlink="http://www.w3.org/1999/xlink" xml:space="preserve" style="fill-rule:evenodd;clip-rule:evenodd;stroke-linejoin:round;stroke-miterlimit:1.41421;"><path d="M45.5,28.5l0,-9c0,-9.939 -8.059,-18 -18,-18c-9.939,0 -18,8.059 -18,18l0,9c-4.971,0 -9,4.029 -9,9l0,27c0,4.971 4.029,9 9,9l36,0c4.971,0 9,-4.029 9,-9l0,-27c0,-4.971 -4.029,-9 -9,-9ZM18.5,19.5c0,-4.971 4.03,-9 9,-9c4.971,0 9,4.03 9,9l0,9l-18,0l0,-9Z" style="fill:#000;fill-rule:nonzero;"/></svg>