<?xml version="1.0" standalone="no"?><!DOCTYPE svg PUBLIC "-//W3C//DTD SVG 1.1//EN" "http://www.w3.org/Graphics/SVG/1.1/DTD/svg11.dtd"><svg width="100%" height="100%" viewBox="0 0 117 22" version="1.1" xmlns="http://www.w3.org/2000/svg" xmlns:xlink="http://www.w3.org/1999/xlink" xml:space="preserve" style="fill-rule:evenodd;clip-rule:evenodd;stroke-linejoin:round;stroke-miterlimit:1.41421;"><path d="M7.927,3.831l-3.831,0l0,5.747l3.831,0c0.923,0 1.66,-0.256 2.21,-0.767c0.55,-0.51 0.826,-1.209 0.826,-2.092c0,-0.865 -0.276,-1.562 -0.826,-2.093c-0.55,-0.53 -1.287,-0.795 -2.21,-0.795M8.134,13.262l-4.038,0l0,7.926l-4.096,0l0,-21.012l8.134,0c2.121,0 3.806,0.625 5.053,1.871c1.248,1.249 1.871,2.806 1.871,4.672c0,1.847 -0.629,3.399 -1.885,4.656c-1.258,1.257 -2.938,1.887 -5.039,1.887" style="fill:#000;fill-rule:nonzero;"/><path d="M25.903,21.336c-2.201,0 -4.038,-0.678 -5.511,-2.033c-1.474,-1.356 -2.21,-3.135 -2.21,-5.334l0,-13.793l4.096,0l0,13.644c0,1.199 0.324,2.142 0.972,2.83c0.649,0.687 1.532,1.032 2.653,1.032c1.119,0 2.008,-0.34 2.667,-1.017c0.657,-0.678 0.987,-1.626 0.987,-2.845l0,-13.644l4.066,0l0,13.793c0,2.199 -0.731,3.978 -2.195,5.334c-1.464,1.355 -3.306,2.033 -5.525,2.033" style="fill:#000;fill-rule:nonzero;"/><path d="M46.561,12.347l-4.273,0l0,5.187l4.273,0c0.884,0 1.562,-0.247 2.033,-0.741c0.472,-0.493 0.708,-1.116 0.708,-1.867c0,-0.751 -0.232,-1.368 -0.693,-1.853c-0.462,-0.483 -1.145,-0.726 -2.048,-0.726M46.296,3.831l-4.008,0l0,4.832l4.008,0c0.864,0 1.532,-0.215 2.003,-0.648c0.472,-0.431 0.707,-1.022 0.707,-1.768c0,-0.727 -0.24,-1.311 -0.721,-1.754c-0.481,-0.441 -1.145,-0.662 -1.989,-0.662M46.974,21.188l-8.782,0l0,-21.012l8.428,0c2.023,0 3.61,0.526 4.758,1.577c1.151,1.052 1.725,2.49 1.725,4.317c0,1.061 -0.265,1.969 -0.795,2.726c-0.531,0.757 -1.13,1.292 -1.798,1.607c0.804,0.374 1.488,0.935 2.049,1.684c0.559,0.748 0.838,1.763 0.838,3.043c0,1.911 -0.588,3.399 -1.767,4.462c-1.179,1.064 -2.731,1.596 -4.656,1.596" style="fill:#000;fill-rule:nonzero;"/><path d="M57.582,21.188l0,-21.012l4.096,0l0,17.358l9.518,0l0,3.654l-13.614,0Z" style="fill:#000;fill-rule:nonzero;"/><rect x="74.526" y="0.176" width="4.096" height="21.012" style="fill:#000;fill-rule:nonzero;"/><path d="M90.527,21.336c-1.119,0 -2.156,-0.197 -3.108,-0.59c-0.953,-0.392 -1.857,-1.017 -2.711,-1.871c-0.855,-0.855 -1.386,-1.857 -1.592,-3.005c-0.206,-1.151 -0.309,-2.884 -0.309,-5.202c0,-2.299 0.107,-4.032 0.324,-5.202c0.216,-1.169 0.751,-2.18 1.606,-3.035c0.854,-0.855 1.744,-1.473 2.667,-1.857c0.923,-0.383 1.964,-0.574 3.123,-0.574c2.023,0 3.729,0.57 5.114,1.709c1.385,1.14 2.254,2.78 2.608,4.921l-4.156,0c-0.215,-0.903 -0.614,-1.625 -1.193,-2.166c-0.58,-0.54 -1.361,-0.81 -2.343,-0.81c-1.119,0 -1.936,0.29 -2.446,0.87c-0.511,0.579 -0.839,1.271 -0.987,2.078c-0.148,0.805 -0.221,2.16 -0.221,4.066c0,1.984 0.068,3.349 0.207,4.096c0.137,0.747 0.466,1.42 0.986,2.018c0.521,0.6 1.342,0.9 2.461,0.9c0.982,0 1.763,-0.27 2.343,-0.811c0.579,-0.54 0.978,-1.262 1.193,-2.166l4.156,0c-0.354,2.122 -1.228,3.757 -2.623,4.907c-1.395,1.149 -3.095,1.724 -5.099,1.724" style="fill:#000;fill-rule:nonzero;"/><rect x="101.099" y="17.774" width="15.662" height="3.562" style="fill:#000;fill-rule:nonzero;"/></svg>