<?xml version="1.0" standalone="no"?><!DOCTYPE svg PUBLIC "-//W3C//DTD SVG 1.1//EN" "http://www.w3.org/Graphics/SVG/1.1/DTD/svg11.dtd"><svg width="100%" height="100%" viewBox="0 0 651 119" version="1.1" xmlns="http://www.w3.org/2000/svg" xmlns:xlink="http://www.w3.org/1999/xlink" xml:space="preserve" style="fill-rule:evenodd;clip-rule:evenodd;stroke-linejoin:round;stroke-miterlimit:1.41421;"><path d="M44.146,21.336l-21.336,0l0,32.001l21.336,0c5.139,0 9.242,-1.422 12.307,-4.266c3.062,-2.845 4.597,-6.732 4.597,-11.652c0,-4.816 -1.535,-8.7 -4.597,-11.655c-3.065,-2.955 -7.168,-4.428 -12.307,-4.428M45.295,73.853l-22.485,0l0,44.143l-22.81,0l0,-117.014l45.295,0c11.816,0 21.197,3.478 28.143,10.42c6.948,6.953 10.422,15.623 10.422,26.017c0,10.285 -3.503,18.926 -10.502,25.927c-7.004,7.002 -16.359,10.507 -28.063,10.507" style="fill:#fff;fill-rule:nonzero;"/><path d="M144.255,118.817c-12.255,0 -22.487,-3.776 -30.69,-11.321c-8.207,-7.553 -12.309,-17.459 -12.309,-29.704l0,-76.81l22.813,0l0,75.983c0,6.675 1.804,11.929 5.414,15.757c3.611,3.829 8.533,5.745 14.772,5.745c6.234,0 11.182,-1.888 14.853,-5.66c3.66,-3.775 5.498,-9.057 5.498,-15.842l0,-75.983l22.642,0l0,76.81c0,12.245 -4.073,22.151 -12.222,29.704c-8.154,7.545 -18.411,11.321 -30.771,11.321" style="fill:#fff;fill-rule:nonzero;"/><path d="M259.295,68.761l-23.798,0l0,28.882l23.798,0c4.923,0 8.697,-1.373 11.323,-4.124c2.626,-2.748 3.94,-6.214 3.94,-10.398c0,-4.18 -1.288,-7.617 -3.858,-10.319c-2.573,-2.691 -6.376,-4.041 -11.405,-4.041M257.819,21.335l-22.322,0l0,26.912l22.322,0c4.812,0 8.533,-1.201 11.157,-3.611c2.625,-2.401 3.938,-5.689 3.938,-9.847c0,-4.046 -1.341,-7.301 -4.02,-9.765c-2.68,-2.459 -6.376,-3.689 -11.075,-3.689M261.592,117.995l-48.903,0l0,-117.014l46.935,0c11.265,0 20.102,2.927 26.499,8.782c6.405,5.856 9.603,13.868 9.603,24.04c0,5.911 -1.475,10.968 -4.429,15.181c-2.955,4.214 -6.293,7.195 -10.01,8.947c4.48,2.083 8.284,5.209 11.407,9.379c3.118,4.168 4.674,9.823 4.674,16.947c0,10.642 -3.281,18.93 -9.846,24.852c-6.565,5.925 -15.207,8.886 -25.93,8.886" style="fill:#fff;fill-rule:nonzero;"/><path d="M320.67,117.995l0,-117.014l22.809,0l0,96.662l53.008,0l0,20.352l-75.817,0Z" style="fill:#fff;fill-rule:nonzero;"/><rect x="415.036" y="0.981" width="22.808" height="117.014" style="fill:#fff;fill-rule:nonzero;"/><path d="M504.14,118.817c-6.229,0 -12.005,-1.094 -17.31,-3.284c-5.306,-2.187 -10.34,-5.663 -15.097,-10.419c-4.76,-4.763 -7.716,-10.341 -8.863,-16.738c-1.15,-6.407 -1.723,-16.056 -1.723,-28.97c0,-12.8 0.596,-22.453 1.806,-28.964c1.199,-6.51 4.183,-12.146 8.945,-16.905c4.756,-4.759 9.709,-8.204 14.85,-10.342c5.14,-2.128 10.939,-3.195 17.392,-3.195c11.267,0 20.765,3.173 28.477,9.516c7.712,6.347 12.553,15.484 14.525,27.408l-23.143,0c-1.199,-5.033 -3.42,-9.049 -6.648,-12.062c-3.227,-3.011 -7.574,-4.513 -13.043,-4.513c-6.235,0 -10.781,1.614 -13.622,4.842c-2.845,3.228 -4.677,7.082 -5.498,11.571c-0.823,4.488 -1.231,12.033 -1.231,22.644c0,11.054 0.381,18.655 1.152,22.815c0.762,4.159 2.594,7.904 5.494,11.237c2.898,3.342 7.47,5.009 13.705,5.009c5.469,0 9.816,-1.504 13.043,-4.512c3.228,-3.008 5.449,-7.032 6.648,-12.064l23.143,0c-1.972,11.817 -6.841,20.921 -14.609,27.328c-7.768,6.396 -17.234,9.598 -28.393,9.598" style="fill:#fff;fill-rule:nonzero;"/><rect x="563.021" y="98.982" width="87.22" height="19.835" style="fill:#fff;fill-rule:nonzero;"/></svg>